<mxfile host="app.diagrams.net" modified="2023-12-08T15:20:05.859Z" agent="Mozilla/5.0 (Windows NT 10.0; Win64; x64) AppleWebKit/537.36 (KHTML, like Gecko) Chrome/119.0.0.0 Safari/537.36" etag="5EfygFpt1a9DijTefkkM" version="22.1.7" type="device">
  <diagram name="第 1 页" id="GxKXv7FpxYMDf4ebdnTe">
    <mxGraphModel dx="989" dy="517" grid="1" gridSize="10" guides="1" tooltips="1" connect="1" arrows="1" fold="1" page="1" pageScale="1" pageWidth="827" pageHeight="1169" math="0" shadow="0">
      <root>
        <mxCell id="0" />
        <mxCell id="1" parent="0" />
        <mxCell id="D5Hs0q8oHJH_CwKfoKgF-6" value="" style="edgeStyle=orthogonalEdgeStyle;rounded=0;orthogonalLoop=1;jettySize=auto;html=1;shape=flexArrow;" edge="1" parent="1" source="D5Hs0q8oHJH_CwKfoKgF-1" target="D5Hs0q8oHJH_CwKfoKgF-2">
          <mxGeometry relative="1" as="geometry" />
        </mxCell>
        <mxCell id="D5Hs0q8oHJH_CwKfoKgF-1" value="" style="rounded=1;whiteSpace=wrap;html=1;fillColor=#d5e8d4;strokeColor=#82b366;" vertex="1" parent="1">
          <mxGeometry x="130" y="180" width="230" height="190" as="geometry" />
        </mxCell>
        <mxCell id="D5Hs0q8oHJH_CwKfoKgF-15" value="" style="edgeStyle=orthogonalEdgeStyle;rounded=0;orthogonalLoop=1;jettySize=auto;html=1;shape=flexArrow;" edge="1" parent="1" source="D5Hs0q8oHJH_CwKfoKgF-2" target="D5Hs0q8oHJH_CwKfoKgF-14">
          <mxGeometry relative="1" as="geometry" />
        </mxCell>
        <mxCell id="D5Hs0q8oHJH_CwKfoKgF-2" value="&lt;br&gt;" style="rounded=1;whiteSpace=wrap;html=1;fillColor=#f8cecc;strokeColor=#b85450;" vertex="1" parent="1">
          <mxGeometry x="448" y="180" width="232" height="190" as="geometry" />
        </mxCell>
        <mxCell id="D5Hs0q8oHJH_CwKfoKgF-8" value="&lt;font style=&quot;font-size: 14px;&quot;&gt;提取因果&lt;br&gt;关系&lt;/font&gt;" style="text;html=1;strokeColor=none;fillColor=none;align=center;verticalAlign=middle;whiteSpace=wrap;rounded=0;" vertex="1" parent="1">
          <mxGeometry x="360" y="240" width="80" height="30" as="geometry" />
        </mxCell>
        <mxCell id="D5Hs0q8oHJH_CwKfoKgF-14" value="" style="rounded=1;whiteSpace=wrap;html=1;fillColor=#e1d5e7;strokeColor=#9673a6;" vertex="1" parent="1">
          <mxGeometry x="750" y="180" width="230" height="200" as="geometry" />
        </mxCell>
        <mxCell id="D5Hs0q8oHJH_CwKfoKgF-17" value="&lt;font style=&quot;font-size: 14px;&quot;&gt;模型&lt;/font&gt;" style="text;html=1;strokeColor=none;fillColor=none;align=center;verticalAlign=middle;whiteSpace=wrap;rounded=0;" vertex="1" parent="1">
          <mxGeometry x="670.5" y="240" width="70" height="30" as="geometry" />
        </mxCell>
        <mxCell id="D5Hs0q8oHJH_CwKfoKgF-18" value="S2" style="ellipse;whiteSpace=wrap;html=1;aspect=fixed;fillColor=#dae8fc;strokeColor=#6c8ebf;" vertex="1" parent="1">
          <mxGeometry x="170.5" y="260" width="30" height="30" as="geometry" />
        </mxCell>
        <mxCell id="D5Hs0q8oHJH_CwKfoKgF-27" value="" style="rounded=0;orthogonalLoop=1;jettySize=auto;html=1;" edge="1" parent="1" source="D5Hs0q8oHJH_CwKfoKgF-19" target="D5Hs0q8oHJH_CwKfoKgF-23">
          <mxGeometry relative="1" as="geometry" />
        </mxCell>
        <mxCell id="D5Hs0q8oHJH_CwKfoKgF-19" value="S1" style="ellipse;whiteSpace=wrap;html=1;aspect=fixed;fillColor=#dae8fc;strokeColor=#6c8ebf;" vertex="1" parent="1">
          <mxGeometry x="210.5" y="220" width="30" height="30" as="geometry" />
        </mxCell>
        <mxCell id="D5Hs0q8oHJH_CwKfoKgF-28" value="" style="rounded=0;orthogonalLoop=1;jettySize=auto;html=1;dashed=1;" edge="1" parent="1" source="D5Hs0q8oHJH_CwKfoKgF-20" target="D5Hs0q8oHJH_CwKfoKgF-23">
          <mxGeometry relative="1" as="geometry" />
        </mxCell>
        <mxCell id="D5Hs0q8oHJH_CwKfoKgF-20" value="&lt;font style=&quot;font-size: 16px;&quot;&gt;...&lt;/font&gt;" style="ellipse;whiteSpace=wrap;html=1;aspect=fixed;fillColor=#dae8fc;strokeColor=#6c8ebf;" vertex="1" parent="1">
          <mxGeometry x="307" y="285" width="30" height="30" as="geometry" />
        </mxCell>
        <mxCell id="D5Hs0q8oHJH_CwKfoKgF-21" value="S3" style="ellipse;whiteSpace=wrap;html=1;aspect=fixed;fillColor=#dae8fc;strokeColor=#6c8ebf;" vertex="1" parent="1">
          <mxGeometry x="190.5" y="300" width="30" height="30" as="geometry" />
        </mxCell>
        <mxCell id="D5Hs0q8oHJH_CwKfoKgF-22" value="S5" style="ellipse;whiteSpace=wrap;html=1;aspect=fixed;fillColor=#dae8fc;strokeColor=#6c8ebf;" vertex="1" parent="1">
          <mxGeometry x="269.5" y="330" width="30" height="30" as="geometry" />
        </mxCell>
        <mxCell id="D5Hs0q8oHJH_CwKfoKgF-23" value="Y" style="ellipse;whiteSpace=wrap;html=1;aspect=fixed;fillColor=#ffe6cc;strokeColor=#d79b00;" vertex="1" parent="1">
          <mxGeometry x="260.5" y="240" width="30" height="30" as="geometry" />
        </mxCell>
        <mxCell id="D5Hs0q8oHJH_CwKfoKgF-26" value="" style="rounded=0;orthogonalLoop=1;jettySize=auto;html=1;" edge="1" parent="1" source="D5Hs0q8oHJH_CwKfoKgF-24" target="D5Hs0q8oHJH_CwKfoKgF-23">
          <mxGeometry relative="1" as="geometry" />
        </mxCell>
        <mxCell id="D5Hs0q8oHJH_CwKfoKgF-24" value="S4" style="ellipse;whiteSpace=wrap;html=1;aspect=fixed;fillColor=#dae8fc;strokeColor=#6c8ebf;" vertex="1" parent="1">
          <mxGeometry x="239.5" y="290" width="30" height="30" as="geometry" />
        </mxCell>
        <mxCell id="D5Hs0q8oHJH_CwKfoKgF-31" value="" style="endArrow=classic;html=1;rounded=0;exitX=1;exitY=0.5;exitDx=0;exitDy=0;" edge="1" parent="1" source="D5Hs0q8oHJH_CwKfoKgF-21" target="D5Hs0q8oHJH_CwKfoKgF-22">
          <mxGeometry width="50" height="50" relative="1" as="geometry">
            <mxPoint x="220.5" y="330" as="sourcePoint" />
            <mxPoint x="270.5" y="280" as="targetPoint" />
          </mxGeometry>
        </mxCell>
        <mxCell id="D5Hs0q8oHJH_CwKfoKgF-35" value="" style="rounded=0;orthogonalLoop=1;jettySize=auto;html=1;" edge="1" parent="1" source="D5Hs0q8oHJH_CwKfoKgF-36" target="D5Hs0q8oHJH_CwKfoKgF-41">
          <mxGeometry relative="1" as="geometry" />
        </mxCell>
        <mxCell id="D5Hs0q8oHJH_CwKfoKgF-36" value="S1" style="ellipse;whiteSpace=wrap;html=1;aspect=fixed;fillColor=#dae8fc;strokeColor=#6c8ebf;" vertex="1" parent="1">
          <mxGeometry x="509.5" y="235" width="30" height="30" as="geometry" />
        </mxCell>
        <mxCell id="D5Hs0q8oHJH_CwKfoKgF-37" value="" style="rounded=0;orthogonalLoop=1;jettySize=auto;html=1;dashed=1;" edge="1" parent="1" source="D5Hs0q8oHJH_CwKfoKgF-38" target="D5Hs0q8oHJH_CwKfoKgF-41">
          <mxGeometry relative="1" as="geometry" />
        </mxCell>
        <mxCell id="D5Hs0q8oHJH_CwKfoKgF-38" value="&lt;font style=&quot;font-size: 16px;&quot;&gt;...&lt;/font&gt;" style="ellipse;whiteSpace=wrap;html=1;aspect=fixed;fillColor=#dae8fc;strokeColor=#6c8ebf;" vertex="1" parent="1">
          <mxGeometry x="610" y="300" width="30" height="30" as="geometry" />
        </mxCell>
        <mxCell id="D5Hs0q8oHJH_CwKfoKgF-41" value="Y" style="ellipse;whiteSpace=wrap;html=1;aspect=fixed;fillColor=#ffe6cc;strokeColor=#d79b00;" vertex="1" parent="1">
          <mxGeometry x="559.5" y="255" width="30" height="30" as="geometry" />
        </mxCell>
        <mxCell id="D5Hs0q8oHJH_CwKfoKgF-42" value="" style="rounded=0;orthogonalLoop=1;jettySize=auto;html=1;" edge="1" parent="1" source="D5Hs0q8oHJH_CwKfoKgF-43" target="D5Hs0q8oHJH_CwKfoKgF-41">
          <mxGeometry relative="1" as="geometry" />
        </mxCell>
        <mxCell id="D5Hs0q8oHJH_CwKfoKgF-43" value="S4" style="ellipse;whiteSpace=wrap;html=1;aspect=fixed;fillColor=#dae8fc;strokeColor=#6c8ebf;" vertex="1" parent="1">
          <mxGeometry x="538.5" y="305" width="30" height="30" as="geometry" />
        </mxCell>
        <mxCell id="D5Hs0q8oHJH_CwKfoKgF-46" value="" style="rounded=0;orthogonalLoop=1;jettySize=auto;html=1;" edge="1" parent="1" source="D5Hs0q8oHJH_CwKfoKgF-47" target="D5Hs0q8oHJH_CwKfoKgF-52">
          <mxGeometry relative="1" as="geometry" />
        </mxCell>
        <mxCell id="D5Hs0q8oHJH_CwKfoKgF-56" value="0.9" style="edgeLabel;html=1;align=center;verticalAlign=middle;resizable=0;points=[];" vertex="1" connectable="0" parent="D5Hs0q8oHJH_CwKfoKgF-46">
          <mxGeometry x="-0.112" relative="1" as="geometry">
            <mxPoint as="offset" />
          </mxGeometry>
        </mxCell>
        <mxCell id="D5Hs0q8oHJH_CwKfoKgF-47" value="S1" style="ellipse;whiteSpace=wrap;html=1;aspect=fixed;fillColor=#478df0;strokeColor=#6c8ebf;" vertex="1" parent="1">
          <mxGeometry x="797" y="230" width="30" height="30" as="geometry" />
        </mxCell>
        <mxCell id="D5Hs0q8oHJH_CwKfoKgF-48" value="" style="rounded=0;orthogonalLoop=1;jettySize=auto;html=1;dashed=1;" edge="1" parent="1" source="D5Hs0q8oHJH_CwKfoKgF-49" target="D5Hs0q8oHJH_CwKfoKgF-52">
          <mxGeometry relative="1" as="geometry" />
        </mxCell>
        <mxCell id="D5Hs0q8oHJH_CwKfoKgF-58" value="0.7" style="edgeLabel;html=1;align=center;verticalAlign=middle;resizable=0;points=[];" vertex="1" connectable="0" parent="D5Hs0q8oHJH_CwKfoKgF-48">
          <mxGeometry x="-0.2289" y="-1" relative="1" as="geometry">
            <mxPoint as="offset" />
          </mxGeometry>
        </mxCell>
        <mxCell id="D5Hs0q8oHJH_CwKfoKgF-49" value="&lt;font style=&quot;font-size: 16px;&quot;&gt;...&lt;/font&gt;" style="ellipse;whiteSpace=wrap;html=1;aspect=fixed;fillColor=#658abd;strokeColor=#6c8ebf;" vertex="1" parent="1">
          <mxGeometry x="930" y="300" width="30" height="30" as="geometry" />
        </mxCell>
        <mxCell id="D5Hs0q8oHJH_CwKfoKgF-52" value="Y" style="ellipse;whiteSpace=wrap;html=1;aspect=fixed;fillColor=#ffe6cc;strokeColor=#d79b00;" vertex="1" parent="1">
          <mxGeometry x="870.5" y="255" width="30" height="30" as="geometry" />
        </mxCell>
        <mxCell id="D5Hs0q8oHJH_CwKfoKgF-53" value="" style="rounded=0;orthogonalLoop=1;jettySize=auto;html=1;" edge="1" parent="1" source="D5Hs0q8oHJH_CwKfoKgF-54" target="D5Hs0q8oHJH_CwKfoKgF-52">
          <mxGeometry relative="1" as="geometry" />
        </mxCell>
        <mxCell id="D5Hs0q8oHJH_CwKfoKgF-57" value="0.5" style="edgeLabel;html=1;align=center;verticalAlign=middle;resizable=0;points=[];" vertex="1" connectable="0" parent="D5Hs0q8oHJH_CwKfoKgF-53">
          <mxGeometry x="-0.079" y="-3" relative="1" as="geometry">
            <mxPoint as="offset" />
          </mxGeometry>
        </mxCell>
        <mxCell id="D5Hs0q8oHJH_CwKfoKgF-54" value="S4" style="ellipse;whiteSpace=wrap;html=1;aspect=fixed;fillColor=#dae8fc;strokeColor=#6c8ebf;" vertex="1" parent="1">
          <mxGeometry x="827" y="325" width="30" height="30" as="geometry" />
        </mxCell>
        <mxCell id="D5Hs0q8oHJH_CwKfoKgF-62" value="根因" style="text;html=1;align=center;verticalAlign=middle;resizable=0;points=[];autosize=1;strokeColor=none;fillColor=none;" vertex="1" parent="1">
          <mxGeometry x="783" y="260" width="50" height="30" as="geometry" />
        </mxCell>
        <mxCell id="D5Hs0q8oHJH_CwKfoKgF-64" value="&lt;font style=&quot;font-size: 15px;&quot;&gt;PC因果发现&lt;/font&gt;" style="text;html=1;strokeColor=none;fillColor=none;align=center;verticalAlign=middle;whiteSpace=wrap;rounded=0;" vertex="1" parent="1">
          <mxGeometry x="180" y="180" width="119.5" height="30" as="geometry" />
        </mxCell>
        <mxCell id="D5Hs0q8oHJH_CwKfoKgF-65" value="&lt;font style=&quot;font-size: 15px;&quot;&gt;PLS建模&lt;/font&gt;" style="text;html=1;strokeColor=none;fillColor=none;align=center;verticalAlign=middle;whiteSpace=wrap;rounded=0;" vertex="1" parent="1">
          <mxGeometry x="510" y="180" width="100" height="30" as="geometry" />
        </mxCell>
        <mxCell id="D5Hs0q8oHJH_CwKfoKgF-66" value="&lt;font style=&quot;font-size: 15px;&quot;&gt;VIP重要性投影&lt;/font&gt;" style="text;html=1;strokeColor=none;fillColor=none;align=center;verticalAlign=middle;whiteSpace=wrap;rounded=0;" vertex="1" parent="1">
          <mxGeometry x="813.5" y="180" width="103" height="30" as="geometry" />
        </mxCell>
        <mxCell id="D5Hs0q8oHJH_CwKfoKgF-67" value="Si" style="ellipse;whiteSpace=wrap;html=1;aspect=fixed;fillColor=#dae8fc;strokeColor=#6c8ebf;" vertex="1" parent="1">
          <mxGeometry x="130" y="140" width="30" height="30" as="geometry" />
        </mxCell>
        <mxCell id="D5Hs0q8oHJH_CwKfoKgF-68" value="sensor-step-feature" style="text;html=1;strokeColor=none;fillColor=none;align=center;verticalAlign=middle;whiteSpace=wrap;rounded=0;" vertex="1" parent="1">
          <mxGeometry x="160.25" y="140" width="109.5" height="30" as="geometry" />
        </mxCell>
        <mxCell id="D5Hs0q8oHJH_CwKfoKgF-69" value="Y" style="ellipse;whiteSpace=wrap;html=1;aspect=fixed;fillColor=#ffe6cc;strokeColor=#d79b00;" vertex="1" parent="1">
          <mxGeometry x="279.5" y="140" width="30" height="30" as="geometry" />
        </mxCell>
        <mxCell id="D5Hs0q8oHJH_CwKfoKgF-70" value="产品质量标签" style="text;html=1;strokeColor=none;fillColor=none;align=center;verticalAlign=middle;whiteSpace=wrap;rounded=0;" vertex="1" parent="1">
          <mxGeometry x="311.5" y="140" width="76" height="30" as="geometry" />
        </mxCell>
        <mxCell id="D5Hs0q8oHJH_CwKfoKgF-71" value="" style="rounded=0;orthogonalLoop=1;jettySize=auto;html=1;" edge="1" parent="1">
          <mxGeometry relative="1" as="geometry">
            <mxPoint x="539.5" y="154.66" as="sourcePoint" />
            <mxPoint x="589.5" y="155.16" as="targetPoint" />
          </mxGeometry>
        </mxCell>
        <mxCell id="D5Hs0q8oHJH_CwKfoKgF-72" value="0.9" style="edgeLabel;html=1;align=center;verticalAlign=middle;resizable=0;points=[];" vertex="1" connectable="0" parent="D5Hs0q8oHJH_CwKfoKgF-71">
          <mxGeometry x="-0.112" relative="1" as="geometry">
            <mxPoint as="offset" />
          </mxGeometry>
        </mxCell>
        <mxCell id="D5Hs0q8oHJH_CwKfoKgF-73" value="结点重要性数值" style="text;html=1;strokeColor=none;fillColor=none;align=center;verticalAlign=middle;whiteSpace=wrap;rounded=0;" vertex="1" parent="1">
          <mxGeometry x="590" y="140" width="90" height="30" as="geometry" />
        </mxCell>
        <mxCell id="D5Hs0q8oHJH_CwKfoKgF-74" value="" style="rounded=0;orthogonalLoop=1;jettySize=auto;html=1;" edge="1" parent="1">
          <mxGeometry relative="1" as="geometry">
            <mxPoint x="399.5" y="154.66" as="sourcePoint" />
            <mxPoint x="449.5" y="155.16" as="targetPoint" />
          </mxGeometry>
        </mxCell>
        <mxCell id="D5Hs0q8oHJH_CwKfoKgF-76" value="结点因果关系" style="text;html=1;strokeColor=none;fillColor=none;align=center;verticalAlign=middle;whiteSpace=wrap;rounded=0;" vertex="1" parent="1">
          <mxGeometry x="450" y="140" width="90" height="30" as="geometry" />
        </mxCell>
      </root>
    </mxGraphModel>
  </diagram>
</mxfile>
